#N canvas 1209 273 560 419 12;
#X obj 183 11 inlet;
#X obj 112 112 noise~;
#X obj 136 260 *~ 1;
#X obj 169 260 *~ 1;
#X obj 202 260 *~ 1;
#X obj 234 260 *~ 1;
#X obj 266 260 *~ 1;
#X obj 298 260 *~ 1;
#X obj 331 260 *~ 1;
#X obj 363 260 *~ 1;
#X obj 49 315 outlet~;
#X obj 107 315 outlet~;
#X obj 169 314 outlet~;
#X obj 228 316 outlet~;
#X obj 285 316 outlet~;
#X obj 344 318 outlet~;
#X obj 401 317 outlet~;
#X obj 460 317 outlet~;
#X msg 348 111 0;
#X obj 176 111 route 1 2 3 4 5 6 7 8;
#X obj 178 48 trigger a b;
#X obj 177 78 pack f 1;
#X obj 339 56 loadbang;
#X obj 408 78 bng 15 250 50 0 empty empty empty 17 7 0 10 -262144 -1
-1;
#X connect 0 0 20 0;
#X connect 1 0 2 0;
#X connect 1 0 3 0;
#X connect 1 0 4 0;
#X connect 1 0 5 0;
#X connect 1 0 6 0;
#X connect 1 0 7 0;
#X connect 1 0 8 0;
#X connect 1 0 9 0;
#X connect 2 0 10 0;
#X connect 3 0 11 0;
#X connect 4 0 12 0;
#X connect 5 0 13 0;
#X connect 6 0 14 0;
#X connect 7 0 15 0;
#X connect 8 0 16 0;
#X connect 9 0 17 0;
#X connect 18 0 9 1;
#X connect 18 0 8 1;
#X connect 18 0 7 1;
#X connect 18 0 6 1;
#X connect 18 0 5 1;
#X connect 18 0 4 1;
#X connect 18 0 3 1;
#X connect 18 0 2 1;
#X connect 19 0 2 1;
#X connect 19 1 3 1;
#X connect 19 2 4 1;
#X connect 19 3 5 1;
#X connect 19 4 6 1;
#X connect 19 5 7 1;
#X connect 19 6 8 1;
#X connect 19 7 9 1;
#X connect 20 0 21 0;
#X connect 20 1 18 0;
#X connect 21 0 19 0;
#X connect 22 0 18 0;
#X connect 23 0 18 0;
