#N canvas 84 298 856 474 12;
#X obj 272 282 vbapmodule-abs 1;
#X obj 430 401 receive matrix;
#X obj 436 435 outlet;
#X obj 416 20 inlet;
#X obj 444 143 route 1 2 3 4 5 6 7 8;
#X obj 304 249 unpack f f f;
#X obj 345 309 unpack f f f;
#X obj 439 248 unpack f f f;
#X obj 480 308 unpack f f f;
#X obj 571 248 unpack f f f;
#X obj 612 308 unpack f f f;
#X obj 707 245 unpack f f f;
#X obj 748 305 unpack f f f;
#X obj 313 342 vbapmodule-abs 2;
#X obj 407 280 vbapmodule-abs 3;
#X obj 448 341 vbapmodule-abs 4;
#X obj 539 281 vbapmodule-abs 5;
#X obj 580 341 vbapmodule-abs 6;
#X obj 675 278 vbapmodule-abs 7;
#X obj 716 338 vbapmodule-abs 8;
#X obj 38 150 list prepend define_loudspeakers;
#X obj 38 194 list trim;
#X obj 34 235 send speaker_setup;
#X floatatom 172 326 5 0 0 0 - - -;
#X floatatom 220 326 5 0 0 0 - - -;
#X floatatom 261 327 5 0 0 0 - - -;
#X text 27 260 goes to all vbapmodules;
#X text 417 381 collect all from the vbapmodules;
#X obj 349 89 route speaker aed;
#X connect 1 0 2 0;
#X connect 3 0 28 0;
#X connect 4 0 5 0;
#X connect 4 1 6 0;
#X connect 4 2 7 0;
#X connect 4 3 8 0;
#X connect 4 4 9 0;
#X connect 4 5 10 0;
#X connect 4 6 11 0;
#X connect 4 7 12 0;
#X connect 5 0 23 0;
#X connect 5 0 0 1;
#X connect 5 1 24 0;
#X connect 5 1 0 2;
#X connect 5 2 25 0;
#X connect 5 2 0 3;
#X connect 6 0 13 1;
#X connect 6 1 13 2;
#X connect 6 2 13 3;
#X connect 7 0 14 1;
#X connect 7 1 14 2;
#X connect 7 2 14 3;
#X connect 8 0 15 1;
#X connect 8 1 15 2;
#X connect 8 2 15 3;
#X connect 9 0 16 1;
#X connect 9 1 16 2;
#X connect 9 2 16 3;
#X connect 10 0 17 1;
#X connect 10 1 17 2;
#X connect 10 2 17 3;
#X connect 11 0 18 1;
#X connect 11 1 18 2;
#X connect 11 2 18 3;
#X connect 12 0 19 1;
#X connect 12 1 19 2;
#X connect 12 2 19 3;
#X connect 20 0 21 0;
#X connect 21 0 22 0;
#X connect 28 0 20 0;
#X connect 28 1 4 0;
