#N canvas 735 362 656 453 12;
#X obj 250 52 route 1 2 3 4 5 6 7 8;
#X obj 99 249 outlet~;
#X obj 160 243 outlet~;
#X obj 217 247 outlet~;
#X obj 279 246 outlet~;
#X obj 340 246 outlet~;
#X obj 401 240 outlet~;
#X obj 458 244 outlet~;
#X obj 520 243 outlet~;
#X obj 249 16 inlet;
#X obj 136 109 mp-synth-abs;
#X obj 232 109 mp-synth-abs;
#X obj 326 112 mp-synth-abs;
#X obj 420 113 mp-synth-abs;
#X obj 187 139 mp-synth-abs;
#X obj 290 141 mp-synth-abs;
#X obj 385 148 mp-synth-abs;
#X obj 480 141 mp-synth-abs;
#X connect 0 0 10 0;
#X connect 0 1 14 0;
#X connect 0 2 11 0;
#X connect 0 3 15 0;
#X connect 0 4 12 0;
#X connect 0 5 16 0;
#X connect 0 6 13 0;
#X connect 0 7 17 0;
#X connect 9 0 0 0;
#X connect 10 0 1 0;
#X connect 11 0 3 0;
#X connect 12 0 5 0;
#X connect 13 0 7 0;
#X connect 14 0 2 0;
#X connect 15 0 4 0;
#X connect 16 0 6 0;
#X connect 17 0 8 0;
