#N canvas 743 258 1062 676 12;
#X declare -lib iemmatrix;
#X obj 556 562 *~ 1;
#X obj 589 562 *~ 1;
#X obj 622 562 *~ 1;
#X obj 654 562 *~ 1;
#X obj 686 562 *~ 1;
#X obj 718 562 *~ 1;
#X obj 751 562 *~ 1;
#X obj 783 562 *~ 1;
#X floatatom 285 417 5 0 0 0 - - - 0;
#X text 289 318 gain;
#X obj 283 162 vsl 15 128 0 1 0 0 empty empty empty 20 8 0 8 #fcfcfc #000000 #000000 0 1;
#X obj 613 12 inlet~;
#X obj 562 10 inlet~;
#X obj 509 10 inlet~;
#X obj 458 11 inlet~;
#X obj 834 12 inlet~;
#X obj 726 12 inlet~;
#X obj 778 12 inlet~;
#X obj 669 13 inlet~;
#X obj 27 20 inlet matrix;
#X obj 463 605 outlet~;
#X obj 521 605 outlet~;
#X obj 583 604 outlet~;
#X obj 642 606 outlet~;
#X obj 699 606 outlet~;
#X obj 758 608 outlet~;
#X obj 815 607 outlet~;
#X obj 874 607 outlet~;
#X obj 47 122 route 1 2 3 4 5 6 7 8;
#X floatatom 80 329 5 0 0 0 - - - 0;
#X floatatom 35 327 5 0 0 0 - - - 0;
#X floatatom 168 330 5 0 0 0 - - - 0;
#X floatatom 124 331 5 0 0 0 - - - 0;
#X floatatom 262 329 5 0 0 0 - - - 0;
#X floatatom 216 328 5 0 0 0 - - - 0;
#X floatatom 354 329 5 0 0 0 - - - 0;
#X floatatom 309 330 5 0 0 0 - - - 0;
#X obj 535 411 *~ 1;
#X obj 568 411 *~ 1;
#X obj 601 411 *~ 1;
#X obj 633 411 *~ 1;
#X obj 665 411 *~ 1;
#X obj 697 411 *~ 1;
#X obj 730 411 *~ 1;
#X obj 762 411 *~ 1;
#X obj 236 161 vsl 15 128 0 1 0 0 empty empty empty 20 8 0 8 #fcfcfc #000000 #000000 0 1;
#X obj 206 164 vsl 15 128 0 1 0 0 empty empty empty 20 8 0 8 #fcfcfc #000000 #000000 0 1;
#X obj 175 162 vsl 15 128 0 1 0 0 empty empty empty 20 8 0 8 #fcfcfc #000000 #000000 0 1;
#X obj 149 164 vsl 15 128 0 1 0 0 empty empty empty 20 8 0 8 #fcfcfc #000000 #000000 0 1;
#X obj 125 163 vsl 15 128 0 1 0 0 empty empty empty 20 8 0 8 #fcfcfc #000000 #000000 0 1;
#X obj 97 161 vsl 15 128 0 1 0 0 empty empty empty 20 8 0 8 #fcfcfc #000000 #000000 0 1;
#X obj 69 161 vsl 15 128 0 1 0 0 empty empty empty 20 8 0 8 #fcfcfc #000000 #000000 0 1;
#X obj 43 161 vsl 15 128 0.01 1 1 0 empty empty empty 20 8 0 8 #fcfcfc #000000 #000000 0 1;
#X obj 331 166 vsl 15 128 0 1000 0 0 empty empty empty 20 8 0 8 #fcfcfc #000000 #000000 0 1;
#X floatatom 345 416 5 0 0 0 - - - 0;
#X obj 201 18 inlet meta;
#X obj 965 606 outlet;
#X obj 69 514 oscparse;
#X obj 67 486 netreceive -u -b;
#X obj 70 543 list trim;
#X obj 197 68 route volume main fader listen;
#X obj 69 416 list prepend listen;
#X obj 66 447 list trim;
#X msg 30 68 1;
#X msg 342 119 100;
#X obj 119 46 loadbang;
#X obj 70 611 declare -lib iemmatrix;
#X obj 593 475 mtx_*~ 8 8 50 ........;
#X obj 837 409 matrix 8 8;
#X connect 0 0 20 0;
#X connect 1 0 21 0;
#X connect 2 0 22 0;
#X connect 3 0 23 0;
#X connect 4 0 24 0;
#X connect 5 0 25 0;
#X connect 6 0 26 0;
#X connect 7 0 27 0;
#X connect 8 0 7 1;
#X connect 8 0 6 1;
#X connect 8 0 5 1;
#X connect 8 0 4 1;
#X connect 8 0 3 1;
#X connect 8 0 2 1;
#X connect 8 0 1 1;
#X connect 8 0 0 1;
#X connect 10 0 8 0;
#X connect 11 0 40 0;
#X connect 12 0 39 0;
#X connect 13 0 38 0;
#X connect 14 0 37 0;
#X connect 15 0 44 0;
#X connect 16 0 42 0;
#X connect 17 0 43 0;
#X connect 18 0 41 0;
#X connect 19 0 68 0;
#X connect 28 0 52 0;
#X connect 28 1 51 0;
#X connect 28 2 50 0;
#X connect 28 3 49 0;
#X connect 28 4 48 0;
#X connect 28 5 47 0;
#X connect 28 6 46 0;
#X connect 28 7 45 0;
#X connect 29 0 38 1;
#X connect 30 0 37 1;
#X connect 31 0 40 1;
#X connect 32 0 39 1;
#X connect 33 0 42 1;
#X connect 34 0 41 1;
#X connect 35 0 44 1;
#X connect 36 0 43 1;
#X connect 37 0 67 1;
#X connect 38 0 67 2;
#X connect 39 0 67 3;
#X connect 40 0 67 4;
#X connect 41 0 67 5;
#X connect 42 0 67 6;
#X connect 43 0 67 7;
#X connect 44 0 67 8;
#X connect 45 0 35 0;
#X connect 46 0 36 0;
#X connect 47 0 33 0;
#X connect 48 0 34 0;
#X connect 49 0 31 0;
#X connect 50 0 32 0;
#X connect 51 0 29 0;
#X connect 52 0 30 0;
#X connect 53 0 54 0;
#X connect 54 0 67 9;
#X connect 55 0 60 0;
#X connect 57 0 59 0;
#X connect 58 0 57 0;
#X connect 59 0 60 0;
#X connect 60 0 28 0;
#X connect 60 1 10 0;
#X connect 60 2 53 0;
#X connect 60 3 61 0;
#X connect 61 0 62 0;
#X connect 62 0 58 0;
#X connect 63 0 52 0;
#X connect 63 0 51 0;
#X connect 63 0 50 0;
#X connect 63 0 49 0;
#X connect 63 0 48 0;
#X connect 63 0 47 0;
#X connect 63 0 46 0;
#X connect 63 0 45 0;
#X connect 63 0 10 0;
#X connect 64 0 53 0;
#X connect 65 0 63 0;
#X connect 65 0 64 0;
#X connect 67 0 0 0;
#X connect 67 1 1 0;
#X connect 67 2 2 0;
#X connect 67 3 3 0;
#X connect 67 4 4 0;
#X connect 67 5 5 0;
#X connect 67 6 6 0;
#X connect 67 7 7 0;
#X connect 68 0 56 0;
#X connect 68 0 67 0;
#X coords 0 676 1 675 265 140 0;
