#N canvas 822 369 918 440 12;
#X obj 402 23 inlet~;
#X obj 350 20 inlet~;
#X obj 297 20 inlet~;
#X obj 246 21 inlet~;
#X obj 622 22 inlet~;
#X obj 514 22 inlet~;
#X obj 566 22 inlet~;
#X obj 457 23 inlet~;
#X obj 254 319 outlet~;
#X obj 316 318 outlet~;
#X obj 378 317 outlet~;
#X obj 437 319 outlet~;
#X obj 494 319 outlet~;
#X obj 553 321 outlet~;
#X obj 610 320 outlet~;
#X obj 669 320 outlet~;
#X obj 91 21 inlet;
#X obj 120 76 delwrite~ \$0-ch1 1000;
#X obj 175 104 delwrite~ \$0-ch2 1000;
#X obj 279 75 delwrite~ \$0-ch3 1000;
#X obj 334 103 delwrite~ \$0-ch4 1000;
#X obj 434 75 delwrite~ \$0-ch5 1000;
#X obj 489 103 delwrite~ \$0-ch6 1000;
#X obj 597 76 delwrite~ \$0-ch7 1000;
#X obj 652 104 delwrite~ \$0-ch8 1000;
#X obj 125 217 delread~ \$0-ch1 0;
#X obj 201 252 delread~ \$0-ch2 0;
#X obj 260 219 delread~ \$0-ch3 0;
#X obj 335 254 delread~ \$0-ch4 0;
#X obj 394 219 delread~ \$0-ch5 0;
#X obj 470 254 delread~ \$0-ch6 0;
#X obj 530 218 delread~ \$0-ch7 0;
#X obj 606 253 delread~ \$0-ch8 0;
#X obj 319 167 unpack f f f f f f f f;
#X connect 0 0 20 0;
#X connect 1 0 19 0;
#X connect 2 0 18 0;
#X connect 3 0 17 0;
#X connect 4 0 24 0;
#X connect 5 0 22 0;
#X connect 6 0 23 0;
#X connect 7 0 21 0;
#X connect 16 0 33 0;
#X connect 25 0 8 0;
#X connect 26 0 9 0;
#X connect 27 0 10 0;
#X connect 28 0 11 0;
#X connect 29 0 12 0;
#X connect 30 0 13 0;
#X connect 31 0 14 0;
#X connect 32 0 15 0;
#X connect 33 0 25 0;
#X connect 33 1 26 0;
#X connect 33 2 27 0;
#X connect 33 3 28 0;
#X connect 33 4 29 0;
#X connect 33 5 30 0;
#X connect 33 6 31 0;
#X connect 33 7 32 0;
