#N canvas 868 349 918 440 12;
#X obj 458 23 inlet~;
#X obj 406 20 inlet~;
#X obj 353 20 inlet~;
#X obj 302 21 inlet~;
#X obj 678 22 inlet~;
#X obj 570 22 inlet~;
#X obj 622 22 inlet~;
#X obj 513 23 inlet~;
#X obj 169 337 outlet~;
#X obj 231 336 outlet~;
#X obj 293 335 outlet~;
#X obj 352 337 outlet~;
#X obj 409 337 outlet~;
#X obj 468 339 outlet~;
#X obj 525 338 outlet~;
#X obj 584 338 outlet~;
#X obj 91 21 inlet;
#X obj 40 235 delread~ \$0-ch1 0;
#X obj 116 270 delread~ \$0-ch2 0;
#X obj 175 237 delread~ \$0-ch3 0;
#X obj 250 272 delread~ \$0-ch4 0;
#X obj 309 237 delread~ \$0-ch5 0;
#X obj 385 272 delread~ \$0-ch6 0;
#X obj 445 236 delread~ \$0-ch7 0;
#X obj 521 271 delread~ \$0-ch8 0;
#X obj 253 177 unpack f f f f f f f f;
#X obj 176 76 delwrite~ \$0-ch1 \$1;
#X obj 335 75 delwrite~ \$0-ch3 \$1;
#X obj 490 75 delwrite~ \$0-ch5 \$1;
#X obj 653 76 delwrite~ \$0-ch7 \$1;
#X obj 231 104 delwrite~ \$0-ch2 \$1;
#X obj 390 103 delwrite~ \$0-ch4 \$1;
#X obj 545 103 delwrite~ \$0-ch6 \$1;
#X obj 708 104 delwrite~ \$0-ch8 \$1;
#X connect 0 0 31 0;
#X connect 1 0 27 0;
#X connect 2 0 30 0;
#X connect 3 0 26 0;
#X connect 4 0 33 0;
#X connect 5 0 32 0;
#X connect 6 0 29 0;
#X connect 7 0 28 0;
#X connect 16 0 25 0;
#X connect 17 0 8 0;
#X connect 18 0 9 0;
#X connect 19 0 10 0;
#X connect 20 0 11 0;
#X connect 21 0 12 0;
#X connect 22 0 13 0;
#X connect 23 0 14 0;
#X connect 24 0 15 0;
#X connect 25 0 17 0;
#X connect 25 1 18 0;
#X connect 25 2 19 0;
#X connect 25 3 20 0;
#X connect 25 4 21 0;
#X connect 25 5 22 0;
#X connect 25 6 23 0;
#X connect 25 7 24 0;
