#N canvas 229 241 559 559 12;
#X obj 126 445 makenote;
#X obj 131 487 noteout;
#X msg 125 403 127;
#X obj 36 118 oscparse;
#X obj 36 92 netreceive -u -b;
#X obj 36 145 list trim;
#X obj 35 174 route rawbang bang;
#X msg 31 66 listen 9000;
#X obj 34 206 unpack f f f f f f f f f;
#X floatatom 80 375 5 0 0 0 - - - 0;
#X obj 76 347 int;
#X floatatom 74 255 5 0 0 0 - - - 0;
#X obj 100 17 loadbang;
#X floatatom 347 399 5 0 0 0 - - - 0;
#X obj 348 193 vsl 20 170 10 2000 0 0 empty empty empty 0 -9 0 12 #fcfcfc #000000 #000000 0 1;
#X obj 160 338 int;
#X floatatom 158 246 5 0 0 0 - - - 0;
#X obj 155 274 * 1000;
#X obj 157 306 + 100;
#X floatatom 402 447 5 0 0 0 - - - 0;
#X obj 71 283 * 24;
#X floatatom 161 369 5 0 0 0 - - - 0;
#X obj 76 316 + 70;
#X obj 296 195 vsl 20 170 0 74 0 0 empty empty empty 0 -9 0 12 #fcfcfc #000000 #000000 0 1;
#X msg 332 152 1000;
#X msg 294 157 60;
#X msg 361 31 10;
#X floatatom 294 393 5 0 0 0 - - - 0;
#X obj 297 427 int;
#X obj 412 70 vradio 20 1 0 16 empty empty empty 0 -10 0 12 #fcfcfc #000000 #000000 0;
#X obj 407 409 + 0;
#X floatatom 19 266 5 0 0 0 - - - 0;
#X connect 0 0 1 0;
#X connect 0 1 1 1;
#X connect 2 0 0 1;
#X connect 3 0 5 0;
#X connect 4 0 3 0;
#X connect 5 0 6 0;
#X connect 6 0 8 0;
#X connect 7 0 4 0;
#X connect 8 0 31 0;
#X connect 8 1 11 0;
#X connect 8 2 16 0;
#X connect 9 0 0 0;
#X connect 9 0 2 0;
#X connect 10 0 9 0;
#X connect 11 0 20 0;
#X connect 12 0 7 0;
#X connect 12 0 26 0;
#X connect 12 0 24 0;
#X connect 12 0 25 0;
#X connect 13 0 17 1;
#X connect 14 0 13 0;
#X connect 15 0 21 0;
#X connect 16 0 17 0;
#X connect 17 0 18 0;
#X connect 18 0 15 0;
#X connect 19 0 1 2;
#X connect 20 0 22 0;
#X connect 21 0 0 2;
#X connect 22 0 10 0;
#X connect 23 0 27 0;
#X connect 24 0 14 0;
#X connect 25 0 23 0;
#X connect 26 0 29 0;
#X connect 27 0 28 0;
#X connect 28 0 22 1;
#X connect 29 0 30 0;
#X connect 30 0 19 0;
