#N canvas 585 33 942 889 12;
#X msg 268 122 speaker 3 -30 0 30 0 -90 0 90 0 180 0 180 45 -45 45 45 45;
#X obj 268 42 loadbang;
#X obj 402 774 vbap-8x8-abs ............;
#X msg 385 351 synth 3 60;
#X msg 388 378 synth 1 74;
#X msg 136 168 aed 7 45 12 30;
#X msg 137 193 aed 7 230 0 0;
#X msg 69 426 main 0.3;
#X msg 68 574 fader 10;
#X msg 67 539 fader 900;
#X text 42 296 set the volume of channel;
#X text 376 298 plays note on channel;
#X text 434 693 eight signal inputs !;
#X text 627 23 an example with unstet osc input;
#X msg 141 642 listen 8000;
#X text 74 640 start;
#X text 89 684 stop;
#X msg 144 676 listen 0;
#X text 526 452 stop noise;
#X text 458 405 noise on channel;
#X msg 458 427 noise 4;
#X text 550 505 noise on SPEAKER;
#X text 134 219 set channel to aed;
#X text 375 272 Theese messages are for testing:;
#X text 38 270 The message are used in setup only:;
#X text 275 75 "speaker" and "aed" are the main messages;
#X text 287 102 defines speakers (must be called bevor using "aed");
#X text 62 15 vpab-8x8-abs - a 8x8 vbap implentation;
#X msg 550 527 locate 7;
#X text 64 399 set main output volume;
#X text 60 509 sets transition time;
#X text 38 608 receive all above messages over osc;
#X msg 551 573 locate 0;
#X msg 463 475 noise 0;
#X msg 559 551 locate 6;
#X msg 465 452 noise 7;
#X msg 68 463 main 1;
#X msg 62 324 volume 7 0.3;
#X msg 65 351 volume 7 1;
#X msg 271 148 speaker 2 -40 0 40 80 130 180 -130 -80;
#X msg 382 322 synth 7 62;
#X obj 408 831 dac~ 1 2 3 4 5 6 7 8;
#X obj 422 721 adc~ 1 2 3 4 5 6 7 8;
#X connect 0 0 2 0;
#X connect 1 0 0 0;
#X connect 2 0 41 0;
#X connect 2 1 41 1;
#X connect 2 2 41 2;
#X connect 2 3 41 3;
#X connect 2 4 41 4;
#X connect 2 5 41 5;
#X connect 2 6 41 6;
#X connect 2 7 41 7;
#X connect 3 0 2 0;
#X connect 4 0 2 0;
#X connect 5 0 2 0;
#X connect 6 0 2 0;
#X connect 7 0 2 0;
#X connect 8 0 2 0;
#X connect 9 0 2 0;
#X connect 14 0 2 0;
#X connect 17 0 2 0;
#X connect 20 0 2 0;
#X connect 28 0 2 0;
#X connect 32 0 2 0;
#X connect 33 0 2 0;
#X connect 34 0 2 0;
#X connect 35 0 2 0;
#X connect 36 0 2 0;
#X connect 37 0 2 0;
#X connect 38 0 2 0;
#X connect 39 0 2 0;
#X connect 40 0 2 0;
#X connect 42 0 2 1;
#X connect 42 1 2 2;
#X connect 42 2 2 3;
#X connect 42 3 2 4;
#X connect 42 4 2 5;
#X connect 42 5 2 6;
#X connect 42 6 2 7;
#X connect 42 7 2 8;
