#N canvas 825 6 942 889 12;
#X msg 342 123 speaker 3 -30 0 30 0 -90 0 90 0 180 0 180 45 -45 45 45 45;
#X obj 539 755 vbap-8x8-abs ............;
#X msg 560 314 synth 3 60;
#X msg 563 341 synth 1 74;
#X msg 92 104 aed 7 45 12 30;
#X msg 93 129 aed 7 230 0 0;
#X msg 99 350 main 0.3;
#X msg 98 498 fader 10;
#X msg 97 463 fader 900;
#X text 86 220 set the volume of channel;
#X text 551 261 plays note on channel;
#X msg 99 645 listen 8000;
#X text 758 587 start;
#X text 176 678 stop;
#X msg 102 679 listen 0;
#X text 686 431 stop noise;
#X text 608 362 noise on channel;
#X msg 608 384 noise 4;
#X text 653 455 noise on SPEAKER;
#X text 90 155 set channel to aed;
#X text 549 236 Theese messages are for testing:;
#X text 338 98 defines speakers (must be called bevor using "aed");
#X text 62 15 vpab-8x8-abs - a 8x8 vbap implentation;
#X msg 653 477 locate 7;
#X text 94 323 set main output volume;
#X text 90 433 sets transition time;
#X text 87 614 receive all above messages over osc;
#X msg 654 523 locate 0;
#X msg 613 432 noise 0;
#X msg 662 501 locate 6;
#X msg 615 409 noise 7;
#X msg 98 387 main 1;
#X msg 92 248 volume 7 0.3;
#X msg 95 275 volume 7 1;
#X msg 364 153 speaker 2 -40 0 40 80 130 180 -130 -80;
#X msg 557 285 synth 7 62;
#X msg 442 206 delay 9 9 9 9 9 0 9 9;
#X text 729 526 stop noise;
#X text 75 67 These messages below;
#X text 348 70 These messages below are used for speaker setup;
#X text 439 182 sets delay (<100ms) for each speaker;
#X obj 553 815 dac~ 1 2 3 4 5 6 7 8;
#X obj 637 685 adc~ 1 2 3 4 5 6 7 8;
#X text 108 730 ex. send "/volume 7 0.9" to osc;
#X connect 0 0 1 0;
#X connect 1 0 41 0;
#X connect 1 1 41 1;
#X connect 1 2 41 2;
#X connect 1 3 41 3;
#X connect 1 4 41 4;
#X connect 1 5 41 5;
#X connect 1 6 41 6;
#X connect 1 7 41 7;
#X connect 2 0 1 0;
#X connect 3 0 1 0;
#X connect 4 0 1 0;
#X connect 5 0 1 0;
#X connect 6 0 1 0;
#X connect 7 0 1 0;
#X connect 8 0 1 0;
#X connect 11 0 1 0;
#X connect 14 0 1 0;
#X connect 17 0 1 0;
#X connect 23 0 1 0;
#X connect 27 0 1 0;
#X connect 28 0 1 0;
#X connect 29 0 1 0;
#X connect 30 0 1 0;
#X connect 31 0 1 0;
#X connect 32 0 1 0;
#X connect 33 0 1 0;
#X connect 34 0 1 0;
#X connect 35 0 1 0;
#X connect 36 0 1 0;
#X connect 42 0 1 1;
#X connect 42 1 1 2;
#X connect 42 2 1 3;
#X connect 42 3 1 4;
#X connect 42 4 1 5;
#X connect 42 5 1 6;
#X connect 42 6 1 7;
#X connect 42 7 1 8;
