#N canvas -23 58 1054 889 12;
#X msg 268 122 speaker 3 -30 0 30 0 -90 0 90 0 180 0 180 45 -45 45 45 45;
#X obj 268 42 loadbang;
#X obj 402 774 vbap-8x8-abs ............;
#X msg 385 351 synth 3 60;
#X msg 388 378 synth 1 74;
#X msg 136 168 aed 7 45 12 30;
#X msg 137 193 aed 7 230 0 0;
#X msg 69 426 main 0.3;
#X msg 68 574 fader 10;
#X msg 67 539 fader 900;
#X text 42 296 set the volume of channel;
#X text 376 298 plays note on channel;
#X text 434 693 eight signal inputs !;
#X text 627 23 an example with unstet osc input;
#X msg 141 642 listen 8000;
#X text 74 640 start;
#X text 89 684 stop;
#X msg 144 676 listen 0;
#X text 526 452 stop noise;
#X text 458 405 noise on channel;
#X msg 458 427 noise 4;
#X text 550 505 noise on SPEAKER;
#X text 134 219 set channel to aed;
#X text 375 272 Theese messages are for testing:;
#X text 38 270 The message are used in setup only:;
#X text 275 75 "speaker" and "aed" are the main messages;
#X text 287 102 defines speakers (must be called bevor using "aed");
#X text 62 15 vpab-8x8-abs - a 8x8 vbap implentation;
#X msg 550 527 locate 7;
#X text 64 399 set main output volume;
#X text 60 509 sets transition time;
#X text 38 608 receive all above messages over osc;
#X msg 551 573 locate 0;
#X msg 463 475 noise 0;
#X msg 559 551 locate 6;
#X msg 465 452 noise 7;
#X msg 68 463 main 1;
#X msg 62 324 volume 7 0.3;
#X msg 65 351 volume 7 1;
#X msg 271 148 speaker 2 -40 0 40 80 130 180 -130 -80;
#X msg 382 322 synth 7 62;
#X obj 408 831 dac~ 1 2 3 4 5 6 7 8;
#X obj 422 721 adc~ 1 2 3 4 5 6 7 8;
#X obj 714 122 oscparse;
#X obj 714 96 netreceive -u -b;
#X obj 714 149 list trim;
#X obj 772 434 * 360;
#X obj 815 437 * 90;
#X floatatom 775 525 5 0 0 0 - - - 0;
#X floatatom 818 522 5 0 0 0 - - - 0;
#X floatatom 862 527 5 0 0 0 - - - 0;
#X floatatom 731 527 5 0 0 0 - - - 0;
#X obj 725 499 + 1;
#X obj 720 469 int;
#X obj 729 562 pack 0 0 0 0;
#X obj 720 433 * 8;
#X obj 898 434 * 12;
#X obj 899 463 + 60;
#X floatatom 903 524 5 0 0 0 - - - 0;
#X obj 902 491 int;
#X obj 881 561 pack 0 0;
#X obj 854 436 * 50;
#X msg 877 594 synth \$1 \$2;
#X msg 715 603 aed \$1 \$2 \$3 \$4;
#X obj 789 698 random 360;
#X obj 788 732 random 90;
#X obj 795 758 random 50;
#X obj 712 700 random 8;
#X obj 728 730 + 1;
#X obj 727 795 pack 0 0 0 0;
#X msg 728 835 aed \$1 \$2 \$3 \$4;
#X obj 928 691 random 12;
#X obj 928 716 + 60;
#X obj 926 793 pack 0 0;
#X msg 929 830 synth \$1 \$2;
#X obj 713 178 route rawbang bang;
#X obj 820 656 trigger b b b;
#X obj 691 765 trigger a a;
#X msg 709 70 listen 9000;
#X obj 585 228 print receive;
#X floatatom 894 400 5 0 0 0 - - - 0;
#X obj 712 210 unpack f f f f f f f f f;
#X obj 652 315 bng 20 250 50 0 empty empty empty 0 -10 0 12 #fcfcfc #000000 #000000;
#X obj 652 315 bng 20 250 50 0 empty empty empty 0 -10 0 12 #fcfcfc #000000 #000000;
#X floatatom 678 367 5 0 0 0 - - - 0;
#X msg 329 211 delay 9 9 9 9 9 0 9 9;
#X text 326 187 sets delay (<100ms) for each speaker;
#X connect 0 0 2 0;
#X connect 1 0 0 0;
#X connect 1 0 78 0;
#X connect 2 0 41 0;
#X connect 2 1 41 1;
#X connect 2 2 41 2;
#X connect 2 3 41 3;
#X connect 2 4 41 4;
#X connect 2 5 41 5;
#X connect 2 6 41 6;
#X connect 2 7 41 7;
#X connect 3 0 2 0;
#X connect 4 0 2 0;
#X connect 5 0 2 0;
#X connect 6 0 2 0;
#X connect 7 0 2 0;
#X connect 8 0 2 0;
#X connect 9 0 2 0;
#X connect 14 0 2 0;
#X connect 17 0 2 0;
#X connect 20 0 2 0;
#X connect 28 0 2 0;
#X connect 32 0 2 0;
#X connect 33 0 2 0;
#X connect 34 0 2 0;
#X connect 35 0 2 0;
#X connect 36 0 2 0;
#X connect 37 0 2 0;
#X connect 38 0 2 0;
#X connect 39 0 2 0;
#X connect 40 0 2 0;
#X connect 42 0 2 1;
#X connect 42 1 2 2;
#X connect 42 2 2 3;
#X connect 42 3 2 4;
#X connect 42 4 2 5;
#X connect 42 5 2 6;
#X connect 42 6 2 7;
#X connect 42 7 2 8;
#X connect 43 0 45 0;
#X connect 44 0 43 0;
#X connect 45 0 75 0;
#X connect 48 0 54 1;
#X connect 49 0 54 2;
#X connect 50 0 54 3;
#X connect 51 0 54 0;
#X connect 51 0 60 0;
#X connect 52 0 51 0;
#X connect 53 0 52 0;
#X connect 54 0 63 0;
#X connect 55 0 53 0;
#X connect 56 0 57 0;
#X connect 57 0 59 0;
#X connect 58 0 60 1;
#X connect 59 0 58 0;
#X connect 60 0 62 0;
#X connect 62 0 2 0;
#X connect 63 0 2 0;
#X connect 64 0 69 1;
#X connect 65 0 69 2;
#X connect 66 0 69 3;
#X connect 67 0 68 0;
#X connect 68 0 77 0;
#X connect 69 0 70 0;
#X connect 71 0 72 0;
#X connect 72 0 73 1;
#X connect 73 0 74 0;
#X connect 75 0 79 0;
#X connect 75 0 81 0;
#X connect 76 1 67 0;
#X connect 76 2 64 0;
#X connect 76 2 65 0;
#X connect 76 2 66 0;
#X connect 76 2 71 0;
#X connect 77 0 73 0;
#X connect 77 1 69 0;
#X connect 78 0 44 0;
#X connect 80 0 56 0;
#X connect 81 0 82 0;
#X connect 81 5 80 0;
#X connect 82 0 84 0;
#X connect 84 0 51 0;
#X connect 85 0 2 0;
