#N canvas 868 217 914 509 12;
#X obj 446 295 8x8-mixer-abs .............;
#X obj 274 207 8-source-vbap-abs;
#X obj 15 118 list prepend speaker;
#X obj 14 141 list trim;
#X obj 167 145 list trim;
#X obj 658 295 8-noise-abs .....;
#X obj 562 23 inlet~;
#X obj 511 21 inlet~;
#X obj 458 21 inlet~;
#X obj 407 22 inlet~;
#X obj 783 23 inlet~;
#X obj 675 23 inlet~;
#X obj 727 23 inlet~;
#X obj 618 24 inlet~;
#X obj 180 29 inlet;
#X obj 170 120 list prepend aed;
#X obj 74 291 oscparse;
#X obj 72 263 netreceive -u -b;
#X obj 71 321 list trim;
#X obj 75 209 list prepend listen;
#X obj 73 239 list trim;
#X obj 470 119 8-noise-abs .....;
#X obj 70 378 print osc;
#X obj 615 118 8-mini-synth-abs .....;
#X obj 386 427 outlet~;
#X obj 448 426 outlet~;
#X obj 510 425 outlet~;
#X obj 569 427 outlet~;
#X obj 626 427 outlet~;
#X obj 685 429 outlet~;
#X obj 742 428 outlet~;
#X obj 801 428 outlet~;
#X obj 19 67 route speaker aed synth noise locate listen delay;
#X obj 539 374 8xdelay.abs 100 ..........;
#X connect 0 0 33 1;
#X connect 0 1 33 2;
#X connect 0 2 33 3;
#X connect 0 3 33 4;
#X connect 0 4 33 5;
#X connect 0 5 33 6;
#X connect 0 6 33 7;
#X connect 0 7 33 8;
#X connect 1 0 0 0;
#X connect 2 0 3 0;
#X connect 3 0 1 0;
#X connect 4 0 1 0;
#X connect 5 0 33 1;
#X connect 5 1 33 2;
#X connect 5 2 33 3;
#X connect 5 3 33 4;
#X connect 5 4 33 5;
#X connect 5 5 33 6;
#X connect 5 6 33 7;
#X connect 5 7 33 8;
#X connect 6 0 0 5;
#X connect 7 0 0 4;
#X connect 8 0 0 3;
#X connect 9 0 0 2;
#X connect 10 0 0 9;
#X connect 11 0 0 7;
#X connect 12 0 0 8;
#X connect 13 0 0 6;
#X connect 14 0 32 0;
#X connect 15 0 4 0;
#X connect 16 0 18 0;
#X connect 17 0 16 0;
#X connect 18 0 22 0;
#X connect 18 0 32 0;
#X connect 19 0 20 0;
#X connect 20 0 17 0;
#X connect 21 0 0 2;
#X connect 21 1 0 3;
#X connect 21 2 0 4;
#X connect 21 3 0 5;
#X connect 21 4 0 6;
#X connect 21 5 0 7;
#X connect 21 6 0 8;
#X connect 21 7 0 9;
#X connect 23 0 0 2;
#X connect 23 1 0 3;
#X connect 23 2 0 4;
#X connect 23 3 0 5;
#X connect 23 4 0 6;
#X connect 23 5 0 7;
#X connect 23 6 0 8;
#X connect 23 7 0 9;
#X connect 32 0 2 0;
#X connect 32 1 15 0;
#X connect 32 2 23 0;
#X connect 32 3 21 0;
#X connect 32 4 5 0;
#X connect 32 5 19 0;
#X connect 32 6 33 0;
#X connect 32 7 0 1;
#X connect 33 0 24 0;
#X connect 33 1 25 0;
#X connect 33 2 26 0;
#X connect 33 3 27 0;
#X connect 33 4 28 0;
#X connect 33 5 29 0;
#X connect 33 6 30 0;
#X connect 33 7 31 0;
