#N canvas 196 328 914 509 12;
#X obj 413 302 8x8-mixer-abs .............;
#X obj 212 199 8-source-vbap-abs;
#X obj 61 128 list prepend speaker;
#X obj 60 151 list trim;
#X obj 213 155 list trim;
#X obj 625 302 8-noise-abs .....;
#X obj 529 30 inlet~;
#X obj 478 28 inlet~;
#X obj 425 28 inlet~;
#X obj 374 29 inlet~;
#X obj 750 30 inlet~;
#X obj 642 30 inlet~;
#X obj 694 30 inlet~;
#X obj 585 31 inlet~;
#X obj 315 417 outlet~;
#X obj 377 416 outlet~;
#X obj 439 415 outlet~;
#X obj 498 417 outlet~;
#X obj 555 417 outlet~;
#X obj 614 419 outlet~;
#X obj 671 418 outlet~;
#X obj 730 418 outlet~;
#X obj 226 39 inlet;
#X obj 216 130 list prepend aed;
#X obj 133 325 oscparse;
#X obj 131 297 netreceive -u -b;
#X obj 130 355 list trim;
#X obj 134 243 list prepend listen;
#X obj 132 273 list trim;
#X obj 431 129 8-noise-abs .....;
#X obj 65 77 route speaker aed synth noise locate listen;
#X obj 51 293 bng 15 250 50 0 empty empty empty 17 7 0 10 #fcfcfc #000000 #000000;
#X obj 38 372 print osc;
#X obj 582 125 8-mini-synth-abs .....;
#X connect 0 0 14 0;
#X connect 0 1 15 0;
#X connect 0 2 16 0;
#X connect 0 3 17 0;
#X connect 0 4 18 0;
#X connect 0 5 19 0;
#X connect 0 6 20 0;
#X connect 0 7 21 0;
#X connect 1 0 0 0;
#X connect 2 0 3 0;
#X connect 3 0 1 0;
#X connect 4 0 1 0;
#X connect 5 0 14 0;
#X connect 5 1 15 0;
#X connect 5 2 16 0;
#X connect 5 3 17 0;
#X connect 5 4 18 0;
#X connect 5 5 19 0;
#X connect 5 6 20 0;
#X connect 5 7 21 0;
#X connect 6 0 0 5;
#X connect 7 0 0 4;
#X connect 8 0 0 3;
#X connect 9 0 0 2;
#X connect 10 0 0 9;
#X connect 11 0 0 7;
#X connect 12 0 0 8;
#X connect 13 0 0 6;
#X connect 22 0 30 0;
#X connect 23 0 4 0;
#X connect 24 0 26 0;
#X connect 25 0 24 0;
#X connect 26 0 30 0;
#X connect 26 0 32 0;
#X connect 27 0 28 0;
#X connect 28 0 25 0;
#X connect 29 0 0 2;
#X connect 29 1 0 3;
#X connect 29 2 0 4;
#X connect 29 3 0 5;
#X connect 29 4 0 6;
#X connect 29 5 0 7;
#X connect 29 6 0 8;
#X connect 29 7 0 9;
#X connect 30 0 2 0;
#X connect 30 1 23 0;
#X connect 30 2 33 0;
#X connect 30 3 29 0;
#X connect 30 4 5 0;
#X connect 30 5 27 0;
#X connect 30 6 0 1;
#X connect 33 0 0 2;
#X connect 33 1 0 3;
#X connect 33 2 0 4;
#X connect 33 3 0 5;
#X connect 33 4 0 6;
#X connect 33 5 0 7;
#X connect 33 6 0 8;
#X connect 33 7 0 9;
