#N canvas 847 684 450 300 12;
#X obj 30 44 inlet~;
#X obj 62 158 send matrix;
#X obj 46 183 throw~ \$1chan;
#X floatatom 180 186 5 0 0 0 - - -;
#X floatatom 225 186 5 0 0 0 - - -;
#X floatatom 270 186 5 0 0 0 - - -;
#X text 137 217 actual azi / ele / spread;
#X obj 82 44 inlet;
#X obj 122 44 inlet;
#X obj 162 44 inlet;
#X text 210 44 azi / ele / spread;
#X obj 41 229 print sm;
#X obj 46 112 vbapsnd-abs \$1;
#X connect 0 0 12 0;
#X connect 7 0 12 1;
#X connect 8 0 12 2;
#X connect 9 0 12 3;
#X connect 12 0 2 0;
#X connect 12 1 1 0;
#X connect 12 2 3 0;
#X connect 12 3 4 0;
#X connect 12 4 5 0;
