#N canvas 885 286 499 754 12;
#X obj 78 88 bng 15 250 50 0 empty empty empty 17 7 0 10 -262144 -1
-1;
#X obj 144 104 pack 0 100;
#X obj 142 181 pack;
#X obj 146 246 basic-note-abs;
#X obj 161 272 basic-note-abs;
#X obj 181 295 basic-note-abs;
#X obj 203 321 basic-note-abs;
#X text 45 622 https://grrrr.org/research/software/upp/upp-tut1/;
#X obj 126 246 bng 15 250 50 0 empty empty empty 17 7 0 10 -262144
-1 -1;
#X obj 143 275 bng 15 250 50 0 empty empty empty 17 7 0 10 -262144
-1 -1;
#X obj 164 298 bng 15 250 50 0 empty empty empty 17 7 0 10 -262144
-1 -1;
#X obj 185 323 bng 15 250 50 0 empty empty empty 17 7 0 10 -262144
-1 -1;
#X obj 137 28 inlet;
#X obj 140 520 outlet~;
#X obj 230 346 basic-note-abs;
#X obj 245 372 basic-note-abs;
#X obj 265 395 basic-note-abs;
#X obj 287 421 basic-note-abs;
#X obj 210 346 bng 15 250 50 0 empty empty empty 17 7 0 10 -262144
-1 -1;
#X obj 227 375 bng 15 250 50 0 empty empty empty 17 7 0 10 -262144
-1 -1;
#X obj 248 398 bng 15 250 50 0 empty empty empty 17 7 0 10 -262144
-1 -1;
#X obj 269 423 bng 15 250 50 0 empty empty empty 17 7 0 10 -262144
-1 -1;
#X obj 131 209 route 1 2 3 4 5 6 7 8;
#X obj 145 144 poly 8 1;
#X connect 1 0 23 0;
#X connect 2 0 22 0;
#X connect 3 0 13 0;
#X connect 4 0 13 0;
#X connect 5 0 13 0;
#X connect 6 0 13 0;
#X connect 12 0 0 0;
#X connect 12 0 1 0;
#X connect 14 0 13 0;
#X connect 15 0 13 0;
#X connect 16 0 13 0;
#X connect 17 0 13 0;
#X connect 22 0 8 0;
#X connect 22 0 3 0;
#X connect 22 1 9 0;
#X connect 22 1 4 0;
#X connect 22 2 10 0;
#X connect 22 2 5 0;
#X connect 22 3 11 0;
#X connect 22 3 6 0;
#X connect 22 4 18 0;
#X connect 22 4 14 0;
#X connect 22 5 19 0;
#X connect 22 5 15 0;
#X connect 22 6 20 0;
#X connect 22 6 16 0;
#X connect 22 7 21 0;
#X connect 22 7 17 0;
#X connect 23 0 2 0;
#X connect 23 1 2 1;
