#N canvas 835 154 942 772 12;
#X obj 288 552 8x8-mixer-abs .............;
#X obj 303 631 dac~ 1 2 3 4 5 6 7 8;
#X msg 141 400 speaker 3 -30 0 30 0 -90 0 90 0 180 0 180 45 -45 45
45 45;
#X obj 286 474 8-source-vbap-abs;
#X text 591 628 main vol;
#X obj 291 203 oscparse;
#X obj 289 175 netreceive -u -b;
#X obj 292 232 list trim;
#X msg 286 145 listen 9000;
#X obj 152 319 list prepend speaker;
#X obj 152 354 list trim;
#X obj 318 350 list trim;
#X obj 320 319 list prepend source;
#X obj 135 79 loadbang;
#X obj 417 293 bng 15 250 50 0 empty empty empty 17 7 0 10 -262144
-1 -1;
#X obj 661 187 list split 2;
#X obj 661 228 unpack f f f f f;
#X obj 704 270 * 360;
#X obj 753 269 * 90;
#X floatatom 713 357 5 0 0 0 - - -;
#X floatatom 759 357 5 0 0 0 - - -;
#X floatatom 800 359 5 0 0 0 - - -;
#X floatatom 669 359 5 0 0 0 - - -;
#X obj 663 331 + 1;
#X msg 346 437 source \$1 \$2 \$3 \$4;
#X obj 658 301 int;
#X obj 667 394 pack 0 0 0 0;
#X obj 656 268 * 8;
#X obj 836 266 * 12;
#X obj 837 295 + 60;
#X floatatom 841 356 5 0 0 0 - - -;
#X obj 840 323 int;
#X obj 845 425 pack 0 0;
#X obj 350 510 synth ..............;
#X obj 719 503 netsend;
#X msg 673 474 connect 192.168.1.102 4000;
#X obj 792 268 * 50;
#X obj 503 607 mtx_print;
#X obj 290 262 route speaker source rawbang;
#X connect 0 0 1 0;
#X connect 0 1 1 1;
#X connect 0 2 1 2;
#X connect 0 3 1 3;
#X connect 0 4 1 4;
#X connect 0 5 1 5;
#X connect 0 6 1 6;
#X connect 0 7 1 7;
#X connect 0 8 37 0;
#X connect 2 0 3 0;
#X connect 3 0 0 0;
#X connect 5 0 7 0;
#X connect 6 0 5 0;
#X connect 7 0 38 0;
#X connect 8 0 6 0;
#X connect 9 0 10 0;
#X connect 10 0 3 0;
#X connect 11 0 3 0;
#X connect 12 0 11 0;
#X connect 13 0 8 0;
#X connect 13 0 2 0;
#X connect 15 1 16 0;
#X connect 16 0 27 0;
#X connect 16 1 17 0;
#X connect 16 2 18 0;
#X connect 16 3 36 0;
#X connect 16 4 28 0;
#X connect 17 0 19 0;
#X connect 18 0 20 0;
#X connect 19 0 26 1;
#X connect 20 0 26 2;
#X connect 21 0 26 3;
#X connect 22 0 26 0;
#X connect 22 0 32 0;
#X connect 23 0 22 0;
#X connect 24 0 3 0;
#X connect 25 0 23 0;
#X connect 26 0 24 0;
#X connect 27 0 25 0;
#X connect 28 0 29 0;
#X connect 29 0 31 0;
#X connect 30 0 32 1;
#X connect 31 0 30 0;
#X connect 32 0 33 0;
#X connect 32 0 34 0;
#X connect 33 0 0 3;
#X connect 33 1 0 4;
#X connect 33 2 0 5;
#X connect 33 3 0 6;
#X connect 33 4 0 7;
#X connect 33 5 0 8;
#X connect 33 6 0 9;
#X connect 33 7 0 10;
#X connect 35 0 34 0;
#X connect 36 0 21 0;
#X connect 38 0 9 0;
#X connect 38 1 12 0;
#X connect 38 2 14 0;
#X connect 38 2 15 0;
#X connect 38 3 0 1;
